<?xml version="1.0" encoding="iso-8859-1"?>
<!-- Generator: Adobe Illustrator 18.1.1, SVG Export Plug-In . SVG Version: 6.00 Build 0)  -->
<svg version="1.1" id="Capa_1" xmlns="http://www.w3.org/2000/svg" xmlns:xlink="http://www.w3.org/1999/xlink" x="0px" y="0px"
	 viewBox="0 0 26.001 26.001" style="enable-background:new 0 0 26.001 26.001;" xml:space="preserve">
<g>
	<g>
		<path style="fill:#ffffff;" d="M2.737,8.325c-0.017,0-0.031,0.009-0.042,0.022c-1.151,1.621-1.845,2.718-2.565,4.05l-0.072,0.147
			l-0.021,0.047c-0.062,0.129-0.046,0.272,0.04,0.408c0.426,0.666,2.813,1.444,8.144,1.444c3.975,0,8.197-0.642,8.197-1.831
			c0-1.148-4.17-1.834-8.197-1.834c-1.338,0-2.662,0.188-3.044,0.248c0.364-0.561,1.877-2.598,1.893-2.619
			c0.007-0.009,0.012-0.019,0.012-0.03c0-0.008-0.003-0.016-0.006-0.024C7.064,8.337,7.047,8.325,7.029,8.325H2.737 M4.29,12.613
			c0-0.248,1.495-0.595,3.931-0.595c2.435,0,3.928,0.347,3.928,0.595s-1.493,0.594-3.928,0.594
			C5.785,13.207,4.29,12.861,4.29,12.613"/>
		<path style="fill:#ffffff;" d="M5.753,18.595c0,0,19.818,0.806,20.241-6.12c0.342-5.618-13.733-5.084-13.746-5.084
			S12.139,7.4,12.139,7.48c0,0.067,0.05,0.09,0.101,0.09c3.903,0,10.254,1.55,10.047,4.909c-0.167,2.736-5.122,5.938-16.527,5.938
			c-0.068,0-0.113,0.047-0.113,0.089S5.672,18.587,5.753,18.595"/>
	</g>
</g>
<g>
</g>
<g>
</g>
<g>
</g>
<g>
</g>
<g>
</g>
<g>
</g>
<g>
</g>
<g>
</g>
<g>
</g>
<g>
</g>
<g>
</g>
<g>
</g>
<g>
</g>
<g>
</g>
<g>
</g>
</svg>
